<svg xmlns="http://www.w3.org/2000/svg" width="32" height="32" fill="none"><g clip-path="url(#a)"><path fill="#fff" d="M27.202 4.652A15.708 15.708 0 0 0 15.988 0C7.254 0 .136 7.116.128 15.852c0 2.798.732 5.52 2.114 7.93L0 32l8.408-2.204a15.867 15.867 0 0 0 7.58 1.93h.008c8.736 0 15.852-7.116 15.86-15.86a15.796 15.796 0 0 0-4.654-11.214Zm-11.214 24.39c-2.362 0-4.68-.635-6.712-1.84l-.48-.288-4.988 1.308 1.332-4.866-.312-.502a13.12 13.12 0 0 1-2.014-7.01c0-7.252 5.914-13.168 13.182-13.168a13.12 13.12 0 0 1 9.32 3.862 13.113 13.113 0 0 1 3.856 9.32c-.008 7.278-5.922 13.184-13.184 13.184Zm7.23-9.868c-.394-.198-2.34-1.156-2.706-1.292-.364-.13-.63-.198-.89.198-.266.394-1.026 1.292-1.254 1.55-.228.266-.464.296-.86.1-.394-.2-1.672-.616-3.184-1.97-1.18-1.05-1.97-2.35-2.206-2.744-.228-.396-.022-.608.176-.806.174-.176.394-.464.592-.692.2-.228.266-.396.396-.66.13-.268.068-.496-.03-.694-.1-.198-.89-2.152-1.224-2.94-.32-.778-.646-.67-.89-.68-.228-.014-.494-.014-.76-.014a1.458 1.458 0 0 0-1.058.494c-.364.396-1.382 1.354-1.382 3.308 0 1.954 1.42 3.832 1.62 4.098.196.266 2.788 4.264 6.766 5.984.94.41 1.68.652 2.258.836.95.304 1.808.258 2.492.16.76-.116 2.342-.96 2.676-1.886.328-.928.328-1.72.228-1.886-.098-.168-.364-.266-.76-.464Z"/></g><defs><clipPath id="a"><path fill="#fff" d="M0 0h32v32H0z"/></clipPath></defs></svg>