<svg width="338" height="739" viewBox="0 0 338 739" fill="none" xmlns="http://www.w3.org/2000/svg">
<path d="M20.4 187.2H694.8V332H635.6V235.2H78V326.4H20.4V187.2ZM613.2 -2.67029e-05L653.2 41.6C501.2 72.8 258.8 88.8 58.8 93.6C58 80.8 51.6 60 46.8 48C242.8 42.4 483.6 26.4 613.2 -2.67029e-05ZM118.8 101.6L166.8 81.6C191.6 109.6 215.6 148 225.2 176L173.2 197.6C165.2 171.2 142 130.4 118.8 101.6ZM293.2 86.4L342.8 68.8C365.2 99.2 386.8 140.8 393.2 169.6L340.4 188C334.8 160.8 314.8 117.6 293.2 86.4ZM507.6 302.4L549.2 273.6C595.6 308.8 650 360.8 674.8 396.8L630.8 429.6C606.8 393.6 553.2 339.2 507.6 302.4ZM282.8 260.8L313.2 228C354.8 245.6 407.6 273.6 433.2 295.2L402 331.2C375.6 309.6 325.2 279.2 282.8 260.8ZM562 68L619.6 90.4C590.8 132.8 556.4 179.2 529.2 210.4L485.2 191.2C510 157.6 544.4 104.8 562 68ZM514 475.2H527.6L538 473.6L575.6 498.4C474 647.2 255.6 710.4 32.4 738.4C26.8 724 11.6 700 0.400002 688C220.4 667.2 430 608.8 514 484.8V475.2ZM215.6 507.2C307.6 611.2 502.8 667.2 718.8 684C706 696.8 691.6 721.6 683.6 737.6C466 715.2 270.8 651.2 168.4 527.2L215.6 507.2ZM270 408.8L322.8 428C256.4 508.8 150.8 577.6 54 620.8C44.4 609.6 23.6 589.6 11.6 580.8C110.8 542.4 212.4 480.8 270 408.8ZM218 282.4H274V358.4C274 375.2 279.6 377.6 313.2 377.6C328.4 377.6 409.2 377.6 430.8 377.6C455.6 377.6 461.2 372 463.6 324.8C475.6 332.8 496.4 339.2 511.6 342.4C506 407.2 490 422.4 438 422.4C422 422.4 322.8 422.4 308.4 422.4C235.6 422.4 218 410.4 218 359.2V282.4ZM139.6 283.2L186 302.4C166.8 354.4 136.4 408 83.6 439.2L41.2 404.8C89.2 378.4 122 331.2 139.6 283.2ZM233.2 475.2H527.6V520H188.4L233.2 475.2Z" fill="#E2E2E2" fill-opacity="0.6"/>
</svg>
