<svg xmlns="http://www.w3.org/2000/svg" width="32" height="32" fill="none"><path fill="url(#a)" d="M14.667 25.333v-6.666L4.6 7.333a2.205 2.205 0 0 1-.433-.616A1.65 1.65 0 0 1 4 6c0-.578.2-1.056.6-1.433C5 4.189 5.489 4 6.067 4h19.866c.578 0 1.067.189 1.467.567.4.377.6.855.6 1.433 0 .244-.056.483-.167.717a2.205 2.205 0 0 1-.433.616L17.333 18.667v6.666h5.334c.377 0 .694.128.95.384.255.255.383.572.383.95 0 .377-.128.694-.383.95a1.29 1.29 0 0 1-.95.383H9.333a1.29 1.29 0 0 1-.95-.383 1.29 1.29 0 0 1-.383-.95c0-.378.128-.695.383-.95a1.29 1.29 0 0 1 .95-.384h5.334Zm-4.734-16h12.134l2.4-2.666H7.533l2.4 2.666Zm6.067 6.8L19.7 12h-7.4l3.7 4.133Z"/><defs><linearGradient id="a" x1="16" x2="16" y1="4" y2="28" gradientUnits="userSpaceOnUse"><stop stop-color="#E40D0D"/><stop offset="1" stop-color="#A80707"/></linearGradient></defs></svg>