<svg xmlns="http://www.w3.org/2000/svg" width="20" height="21" fill="none"><g fill="#E2E2E2" clip-path="url(#a)"><path d="M10 9.25a.625.625 0 0 1 .625.625v1.875H12.5a.624.624 0 1 1 0 1.25h-1.875v1.875a.624.624 0 1 1-1.25 0V13H7.5a.625.625 0 1 1 0-1.25h1.875V9.875A.625.625 0 0 1 10 9.25Z"/><path d="M4.375.5A.625.625 0 0 1 5 1.125v.625h10v-.625a.625.625 0 1 1 1.25 0v.625h1.25a2.5 2.5 0 0 1 2.5 2.5V18a2.5 2.5 0 0 1-2.5 2.5h-15A2.5 2.5 0 0 1 0 18V4.25a2.5 2.5 0 0 1 2.5-2.5h1.25v-.625A.625.625 0 0 1 4.375.5Zm-3.125 5V18a1.25 1.25 0 0 0 1.25 1.25h15A1.25 1.25 0 0 0 18.75 18V5.5H1.25Z"/></g><defs><clipPath id="a"><path fill="#fff" d="M0 .5h20v20H0z"/></clipPath></defs></svg>