<svg xmlns="http://www.w3.org/2000/svg" width="32" height="32" fill="none"><path fill="url(#a)" d="M9.233 22.5a8.102 8.102 0 0 1-3.766-2.883C4.489 18.272 4 16.733 4 15c0-1.756.417-3.317 1.25-4.683C6.083 8.95 7 7.8 8 6.867c1-.934 1.917-1.645 2.75-2.134L12 4v3.3c0 .556.2 1.028.6 1.417.4.389.878.583 1.433.583.311 0 .6-.067.867-.2a1.82 1.82 0 0 0 .667-.567L16 8a8.146 8.146 0 0 1 2.167 1.8 7.563 7.563 0 0 1 1.366 2.4L17.3 14.433a5.217 5.217 0 0 0-.383-1.566 5.305 5.305 0 0 0-.85-1.4 3.55 3.55 0 0 1-.984.383 4.75 4.75 0 0 1-1.05.117 4.559 4.559 0 0 1-2.65-.817 4.638 4.638 0 0 1-1.716-2.183 12.43 12.43 0 0 0-2.134 2.75A6.506 6.506 0 0 0 6.667 15c0 .689.122 1.339.366 1.95.245.611.578 1.15 1 1.617.045-.445.173-.861.384-1.25a4.54 4.54 0 0 1 .783-1.05l2.8-2.8 2.867 2.8c.044.044.089.1.133.166.044.067.089.123.133.167l-1.9 1.9a3.771 3.771 0 0 0-.116-.167A1.265 1.265 0 0 0 13 18.2l-1-.967-.933.934a1.635 1.635 0 0 0-.284.383 1.004 1.004 0 0 0-.116.483c0 .267.077.506.233.717.156.211.356.372.6.483L9.233 22.5Zm.634 6.833L8 27.467 26.133 9.333 28 11.2 23.2 16H28v2.667h-7.467l-.666.666 2 2H28V24h-3.467l2.8 2.8-1.866 1.867-2.8-2.8v3.466H20V23.2l-2-2-.667.667v7.466h-2.666v-4.8l-4.8 4.8Z"/><defs><linearGradient id="a" x1="16" x2="16" y1="4" y2="29.333" gradientUnits="userSpaceOnUse"><stop stop-color="#E40D0D"/><stop offset="1" stop-color="#A80707"/></linearGradient></defs></svg>