<svg xmlns="http://www.w3.org/2000/svg" width="32" height="32" fill="none"><path fill="url(#a)" d="M16 28c-.933 0-1.722-.322-2.367-.967-.644-.644-.966-1.433-.966-2.366 0-.934.322-1.723.966-2.367.645-.645 1.434-.967 2.367-.967s1.722.323 2.367.967c.644.644.966 1.433.966 2.367 0 .933-.322 1.722-.966 2.366-.645.645-1.434.967-2.367.967Zm0-14.667c1.667 0 3.25.267 4.75.8 1.5.534 2.861 1.267 4.083 2.2.445.334.673.773.684 1.317.01.544-.184 1.017-.584 1.417a1.96 1.96 0 0 1-1.4.583 2.465 2.465 0 0 1-1.5-.45 10.922 10.922 0 0 0-2.8-1.367c-1.022-.333-2.1-.5-3.233-.5s-2.211.167-3.233.5a10.923 10.923 0 0 0-2.8 1.367 2.38 2.38 0 0 1-1.5.433 2.024 2.024 0 0 1-1.4-.6 1.995 1.995 0 0 1-.567-1.416c0-.545.222-.984.667-1.317a14.573 14.573 0 0 1 4.083-2.183c1.5-.523 3.083-.784 4.75-.784Zm0-8c2.778 0 5.394.456 7.85 1.367a21.81 21.81 0 0 1 6.617 3.867c.444.377.677.844.7 1.4A1.845 1.845 0 0 1 30.6 13.4a1.961 1.961 0 0 1-1.4.583 2.263 2.263 0 0 1-1.5-.516 18.255 18.255 0 0 0-5.383-3.05c-1.99-.723-4.095-1.084-6.317-1.084-2.222 0-4.328.361-6.317 1.084a18.256 18.256 0 0 0-5.383 3.05 2.263 2.263 0 0 1-1.5.516 1.961 1.961 0 0 1-1.4-.583c-.4-.4-.589-.878-.567-1.433.023-.556.256-1.023.7-1.4A21.81 21.81 0 0 1 8.15 6.7c2.456-.911 5.072-1.367 7.85-1.367Z"/><defs><linearGradient id="a" x1="16" x2="16" y1="5.333" y2="28" gradientUnits="userSpaceOnUse"><stop stop-color="#E40D0D"/><stop offset="1" stop-color="#A80707"/></linearGradient></defs></svg>