<svg xmlns="http://www.w3.org/2000/svg" width="144" height="29" fill="none"><path fill="#fff" d="M9.552 22.04H5.88V4.466H0V1.334h15.432v3.132h-5.88V22.04ZM22.122 6.032c2.008 0 3.528.445 4.56 1.334 1.052.87 1.578 2.243 1.578 4.118V22.04h-2.553l-.717-2.175h-.114a8.798 8.798 0 0 1-1.377 1.421 4.17 4.17 0 0 1-1.607.783c-.592.174-1.319.261-2.18.261-.917 0-1.75-.174-2.495-.522a3.934 3.934 0 0 1-1.721-1.595c-.42-.735-.631-1.653-.631-2.755 0-1.624.583-2.842 1.75-3.654 1.185-.831 2.973-1.286 5.364-1.363l2.696-.087v-.783c0-1.005-.24-1.72-.717-2.146-.478-.425-1.148-.638-2.008-.638-.784 0-1.54.116-2.266.348-.727.232-1.434.503-2.123.812l-1.147-2.552a11.873 11.873 0 0 1 2.61-.986 12.594 12.594 0 0 1 3.098-.377Zm.66 8.642c-1.588.058-2.687.338-3.299.841-.612.483-.918 1.14-.918 1.972 0 .735.22 1.266.66 1.595.44.329 1.004.493 1.692.493 1.052 0 1.941-.3 2.668-.899.726-.619 1.09-1.527 1.09-2.726v-1.334l-1.893.058ZM30.466 6.322h3.93l3.097 8.874c.134.387.249.764.344 1.131.115.348.21.706.287 1.073.077.367.134.735.172 1.102h.115c.077-.483.191-1.015.344-1.595.172-.58.344-1.15.517-1.711l2.983-8.874h3.9L39.53 24.128c-.383 1.025-.87 1.904-1.463 2.639a5.502 5.502 0 0 1-2.065 1.653c-.784.387-1.674.58-2.668.58-.459 0-.87-.029-1.233-.087a9.26 9.26 0 0 1-.918-.145v-2.9c.21.039.459.077.746.116.305.039.621.058.946.058.593 0 1.1-.126 1.52-.377.44-.232.803-.56 1.09-.986a5.89 5.89 0 0 0 .746-1.421l.46-1.276-6.225-15.66ZM62.358 14.152c0 1.315-.172 2.475-.516 3.48-.344 1.005-.841 1.866-1.491 2.581-.631.696-1.416 1.228-2.352 1.595-.918.348-1.941.522-3.07.522-1.07 0-2.055-.174-2.954-.522a6.792 6.792 0 0 1-2.352-1.595c-.65-.715-1.157-1.576-1.52-2.581-.364-1.005-.545-2.165-.545-3.48 0-1.74.296-3.21.889-4.408C49.04 8.526 49.89 7.608 51 6.989c1.128-.638 2.457-.957 3.987-.957 1.453 0 2.725.319 3.815.957 1.109.619 1.979 1.537 2.61 2.755.63 1.199.947 2.668.947 4.408Zm-11.1 0c0 1.102.124 2.05.373 2.842.267.773.669 1.363 1.205 1.769.554.406 1.261.609 2.122.609.88 0 1.587-.203 2.123-.609.554-.406.956-.996 1.204-1.769.249-.793.373-1.74.373-2.842 0-1.121-.134-2.059-.401-2.813-.249-.773-.65-1.353-1.205-1.74-.535-.406-1.233-.609-2.094-.609-1.3 0-2.247.445-2.84 1.334-.573.89-.86 2.165-.86 3.828ZM85.794 16.385c0 1.218-.297 2.272-.89 3.161-.592.89-1.453 1.576-2.581 2.059-1.11.483-2.438.725-3.987.725-.746 0-1.463-.048-2.151-.145-.67-.077-1.31-.203-1.922-.377a10.644 10.644 0 0 1-1.664-.638v-3.48c.86.387 1.807.744 2.84 1.073a10.94 10.94 0 0 0 3.155.464c.822 0 1.492-.106 2.008-.319.535-.232.927-.541 1.176-.928.249-.406.373-.87.373-1.392 0-.58-.163-1.073-.488-1.479-.325-.406-.803-.783-1.434-1.131a23.576 23.576 0 0 0-2.352-1.102 23.6 23.6 0 0 1-1.864-.899 7.811 7.811 0 0 1-1.607-1.247 5.579 5.579 0 0 1-1.147-1.711c-.287-.657-.43-1.43-.43-2.32 0-1.18.277-2.194.832-3.045.573-.85 1.367-1.498 2.38-1.943 1.033-.445 2.228-.667 3.586-.667 1.09 0 2.113.116 3.069.348.956.232 1.903.56 2.84.986L84.36 5.365a17.68 17.68 0 0 0-2.439-.87 9.162 9.162 0 0 0-2.409-.319c-.65 0-1.205.106-1.664.319-.459.193-.803.474-1.032.841-.23.367-.344.793-.344 1.276 0 .56.143 1.034.43 1.421.287.387.726.754 1.32 1.102.611.329 1.395.706 2.351 1.131 1.11.483 2.046.986 2.811 1.508.765.522 1.358 1.15 1.779 1.885.42.735.63 1.643.63 2.726ZM103.113 6.322V22.04h-2.84l-.487-2.03h-.172a4.188 4.188 0 0 1-1.262 1.334c-.517.329-1.08.57-1.693.725a6.888 6.888 0 0 1-1.893.261c-1.147 0-2.142-.203-2.983-.609a4.178 4.178 0 0 1-1.922-1.856c-.44-.85-.66-1.943-.66-3.277V6.322h3.615v9.541c0 1.16.23 2.04.688 2.639.459.58 1.186.87 2.18.87.975 0 1.74-.203 2.295-.609.554-.425.946-1.034 1.176-1.827.23-.793.344-1.769.344-2.929V6.322h3.614ZM118.304 17.487c0 1.044-.249 1.933-.746 2.668-.497.715-1.233 1.257-2.208 1.624-.956.367-2.133.551-3.528.551-1.09 0-2.027-.077-2.811-.232a9.798 9.798 0 0 1-2.238-.725V18.27c.765.367 1.616.677 2.553.928.937.251 1.807.377 2.61.377.995 0 1.712-.155 2.152-.464.439-.31.659-.725.659-1.247 0-.31-.086-.59-.258-.841-.172-.251-.507-.512-1.004-.783-.497-.29-1.252-.648-2.266-1.073-.994-.406-1.826-.812-2.495-1.218-.65-.406-1.148-.89-1.492-1.45-.325-.58-.487-1.305-.487-2.175 0-1.411.554-2.475 1.663-3.19 1.109-.735 2.572-1.102 4.389-1.102.956 0 1.855.097 2.696.29.861.174 1.721.464 2.582.87l-1.148 2.697a14.538 14.538 0 0 0-1.434-.551 8.976 8.976 0 0 0-1.405-.406 6.806 6.806 0 0 0-1.406-.145c-.784 0-1.377.126-1.778.377-.402.232-.603.56-.603.986 0 .329.096.619.287.87.21.232.564.474 1.061.725.517.232 1.243.541 2.18.928.937.367 1.731.754 2.381 1.16.669.387 1.186.87 1.549 1.45s.545 1.315.545 2.204ZM125.396 5.249c0 .619-.029 1.228-.086 1.827-.039.58-.077 1.015-.115 1.305h.229a4.143 4.143 0 0 1 1.205-1.305 5.247 5.247 0 0 1 1.578-.783 6.475 6.475 0 0 1 1.835-.261c1.167 0 2.171.203 3.012.609a4.145 4.145 0 0 1 1.922 1.885c.459.831.688 1.924.688 3.277V22.04h-3.614v-9.512c0-1.199-.229-2.088-.688-2.668-.459-.58-1.186-.87-2.18-.87-.956 0-1.712.213-2.266.638-.555.406-.947 1.015-1.176 1.827-.23.793-.344 1.769-.344 2.929v7.656h-3.614V0h3.614v5.249ZM143.799 6.322V22.04h-3.614V6.322h3.614ZM141.992.261c.536 0 1.004.145 1.406.435.401.27.602.764.602 1.479 0 .696-.201 1.199-.602 1.508-.402.29-.87.435-1.406.435-.554 0-1.032-.145-1.434-.435-.382-.31-.574-.812-.574-1.508 0-.715.192-1.208.574-1.479.402-.29.88-.435 1.434-.435Z"/></svg>