<svg xmlns="http://www.w3.org/2000/svg" width="162" height="33" fill="none"><path fill="#fff" d="M11.168 25H7.072V5.608H.512V2.152h17.216v3.456h-6.56V25ZM25.192 7.336c2.24 0 3.936.49 5.087 1.472 1.174.96 1.76 2.475 1.76 4.544V25h-2.848l-.8-2.4h-.127a9.763 9.763 0 0 1-1.537 1.568 4.673 4.673 0 0 1-1.791.864c-.662.192-1.473.288-2.433.288-1.023 0-1.951-.192-2.784-.576a4.37 4.37 0 0 1-1.92-1.76c-.469-.81-.703-1.824-.703-3.04 0-1.792.65-3.136 1.951-4.032 1.323-.917 3.318-1.419 5.985-1.504l3.008-.096v-.864c0-1.11-.267-1.899-.8-2.368-.534-.47-1.28-.704-2.24-.704-.875 0-1.718.128-2.529.384-.81.256-1.6.555-2.367.896l-1.28-2.816c.853-.448 1.823-.81 2.911-1.088a14.197 14.197 0 0 1 3.457-.416Zm.735 9.536c-1.77.064-2.997.373-3.68.928-.682.533-1.023 1.259-1.023 2.176 0 .81.245 1.397.735 1.76.491.363 1.12.544 1.889.544 1.173 0 2.165-.33 2.976-.992.81-.683 1.215-1.685 1.215-3.008v-1.472l-2.112.064ZM34.5 7.656h4.384l3.456 9.792c.15.427.277.843.384 1.248.128.384.235.779.32 1.184.085.405.15.81.192 1.216h.128c.085-.533.213-1.12.384-1.76.192-.64.384-1.27.576-1.888l3.328-9.792h4.352l-7.392 19.648c-.427 1.13-.97 2.101-1.632 2.912a6.126 6.126 0 0 1-2.304 1.824c-.875.427-1.867.64-2.976.64-.512 0-.97-.032-1.376-.096a10.436 10.436 0 0 1-1.024-.16v-3.2c.235.043.512.085.832.128.341.043.693.064 1.056.064.661 0 1.227-.139 1.696-.416.49-.256.896-.619 1.216-1.088a6.47 6.47 0 0 0 .832-1.568l.512-1.408L34.5 7.656ZM70.08 16.296c0 1.45-.192 2.73-.576 3.84-.384 1.11-.939 2.059-1.664 2.848-.704.768-1.579 1.355-2.624 1.76-1.024.384-2.165.576-3.424.576-1.195 0-2.293-.192-3.296-.576a7.58 7.58 0 0 1-2.624-1.76c-.725-.79-1.29-1.739-1.696-2.848-.405-1.11-.608-2.39-.608-3.84 0-1.92.33-3.541.992-4.864.661-1.344 1.61-2.357 2.848-3.04 1.259-.704 2.741-1.056 4.448-1.056 1.621 0 3.04.352 4.256 1.056 1.237.683 2.208 1.696 2.912 3.04.704 1.323 1.056 2.944 1.056 4.864Zm-12.384 0c0 1.216.139 2.261.416 3.136.299.853.747 1.504 1.344 1.952.619.448 1.408.672 2.368.672.981 0 1.77-.224 2.368-.672.619-.448 1.067-1.099 1.344-1.952.277-.875.416-1.92.416-3.136 0-1.237-.15-2.272-.448-3.104-.277-.853-.725-1.493-1.344-1.92-.597-.448-1.376-.672-2.336-.672-1.45 0-2.507.49-3.168 1.472-.64.981-.96 2.39-.96 4.224ZM96.225 18.76c0 1.344-.33 2.507-.992 3.488-.662.981-1.622 1.739-2.88 2.272-1.238.533-2.72.8-4.448.8-.832 0-1.632-.053-2.4-.16a13.618 13.618 0 0 1-2.144-.416 11.956 11.956 0 0 1-1.856-.704V20.2c.96.427 2.016.821 3.168 1.184 1.152.341 2.325.512 3.52.512.917 0 1.664-.117 2.24-.352.597-.256 1.034-.597 1.312-1.024.277-.448.416-.96.416-1.536 0-.64-.182-1.184-.544-1.632-.363-.448-.896-.864-1.6-1.248-.704-.384-1.579-.79-2.624-1.216a26.458 26.458 0 0 1-2.08-.992 8.704 8.704 0 0 1-1.792-1.376 6.153 6.153 0 0 1-1.28-1.888c-.32-.725-.48-1.579-.48-2.56 0-1.301.31-2.421.928-3.36.64-.939 1.525-1.653 2.656-2.144 1.152-.49 2.485-.736 4-.736 1.216 0 2.357.128 3.424.384 1.066.256 2.122.619 3.168 1.088L94.625 6.6a19.865 19.865 0 0 0-2.72-.96 10.328 10.328 0 0 0-2.688-.352c-.726 0-1.344.117-1.856.352-.512.213-.896.523-1.152.928-.256.405-.384.875-.384 1.408 0 .619.16 1.141.48 1.568.32.427.81.832 1.472 1.216.682.363 1.557.779 2.624 1.248 1.237.533 2.282 1.088 3.136 1.664.853.576 1.514 1.27 1.984 2.08s.704 1.813.704 3.008ZM115.546 7.656V25h-3.168l-.544-2.24h-.192a4.635 4.635 0 0 1-1.408 1.472 6.454 6.454 0 0 1-1.888.8 7.756 7.756 0 0 1-2.112.288c-1.28 0-2.389-.224-3.328-.672a4.643 4.643 0 0 1-2.144-2.048c-.49-.939-.736-2.144-.736-3.616V7.656h4.032v10.528c0 1.28.256 2.25.768 2.912.512.64 1.323.96 2.432.96 1.088 0 1.942-.224 2.56-.672.619-.47 1.056-1.141 1.312-2.016s.384-1.952.384-3.232v-8.48h4.032ZM132.494 19.976c0 1.152-.278 2.133-.832 2.944-.555.79-1.376 1.387-2.464 1.792-1.067.405-2.379.608-3.936.608-1.216 0-2.262-.085-3.136-.256a10.991 10.991 0 0 1-2.496-.8V20.84c.853.405 1.802.747 2.848 1.024 1.045.277 2.016.416 2.912.416 1.109 0 1.909-.17 2.4-.512.49-.341.736-.8.736-1.376 0-.341-.096-.65-.288-.928-.192-.277-.566-.565-1.12-.864-.555-.32-1.398-.715-2.528-1.184-1.11-.448-2.038-.896-2.784-1.344-.726-.448-1.28-.981-1.664-1.6-.363-.64-.544-1.44-.544-2.4 0-1.557.618-2.73 1.856-3.52 1.237-.81 2.869-1.216 4.896-1.216 1.066 0 2.069.107 3.008.32.96.192 1.92.512 2.88.96l-1.28 2.976a16.43 16.43 0 0 0-1.6-.608 10.114 10.114 0 0 0-1.568-.448 7.668 7.668 0 0 0-1.568-.16c-.875 0-1.536.139-1.984.416-.448.256-.672.619-.672 1.088 0 .363.106.683.32.96.234.256.629.523 1.184.8.576.256 1.386.597 2.432 1.024 1.045.405 1.93.832 2.656 1.28.746.427 1.322.96 1.728 1.6.405.64.608 1.45.608 2.432ZM140.405 6.472c0 .683-.032 1.355-.096 2.016a23.11 23.11 0 0 1-.128 1.44h.256a4.599 4.599 0 0 1 1.344-1.44 5.89 5.89 0 0 1 1.76-.864 7.312 7.312 0 0 1 2.048-.288c1.302 0 2.422.224 3.36.672a4.599 4.599 0 0 1 2.144 2.08c.512.917.768 2.123.768 3.616V25h-4.032V14.504c0-1.323-.256-2.304-.768-2.944-.512-.64-1.322-.96-2.432-.96-1.066 0-1.909.235-2.528.704-.618.448-1.056 1.12-1.312 2.016-.256.875-.384 1.952-.384 3.232V25h-4.032V.68h4.032v5.792ZM160.936 7.656V25h-4.032V7.656h4.032ZM158.92.968c.598 0 1.12.16 1.568.48.448.299.672.843.672 1.632 0 .768-.224 1.323-.672 1.664-.448.32-.97.48-1.568.48-.618 0-1.152-.16-1.6-.48-.426-.341-.64-.896-.64-1.664 0-.79.214-1.333.64-1.632.448-.32.982-.48 1.6-.48Z"/></svg>